<mxfile host="app.diagrams.net" agent="Mozilla/5.0 (Windows NT 10.0; Win64; x64; rv:139.0) Gecko/20100101 Firefox/139.0" version="27.1.6">
  <diagram name="Page-1" id="oityyMdGMGGHsL6z41JJ">
    <mxGraphModel dx="1530" dy="1423" grid="1" gridSize="10" guides="1" tooltips="1" connect="1" arrows="1" fold="1" page="1" pageScale="1" pageWidth="827" pageHeight="1169" math="0" shadow="0">
      <root>
        <mxCell id="0" />
        <mxCell id="1" parent="0" />
        <mxCell id="k24GHoGkGPeTWMlgkCIQ-8" style="edgeStyle=orthogonalEdgeStyle;rounded=0;orthogonalLoop=1;jettySize=auto;html=1;" edge="1" parent="1" source="k24GHoGkGPeTWMlgkCIQ-1" target="k24GHoGkGPeTWMlgkCIQ-2">
          <mxGeometry relative="1" as="geometry">
            <Array as="points">
              <mxPoint x="100" y="160" />
            </Array>
          </mxGeometry>
        </mxCell>
        <object label="Main Start" odk_type="start" form_id="questionaire" name="s_" id="k24GHoGkGPeTWMlgkCIQ-1">
          <mxCell style="ellipse;whiteSpace=wrap;html=1;aspect=fixed;fontColor=default;" vertex="1" parent="1">
            <mxGeometry x="60" y="30" width="70" height="70" as="geometry" />
          </mxCell>
        </object>
        <mxCell id="k24GHoGkGPeTWMlgkCIQ-61" style="edgeStyle=orthogonalEdgeStyle;rounded=0;orthogonalLoop=1;jettySize=auto;html=1;" edge="1" parent="1" source="k24GHoGkGPeTWMlgkCIQ-2" target="k24GHoGkGPeTWMlgkCIQ-3">
          <mxGeometry relative="1" as="geometry" />
        </mxCell>
        <object label="&lt;div&gt;Date of Birth&lt;/div&gt;" odk_type="date" name="d_" id="k24GHoGkGPeTWMlgkCIQ-2">
          <mxCell style="shape=mxgraph.bpmn.task2;whiteSpace=wrap;html=1;fixedSize=1;points=[[0.25,0,0],[0.5,0,0],[0.75,0,0],[1,0.25,0],[1,0.5,0],[1,0.75,0],[0.75,1,0],[0.5,1,0],[0.25,1,0],[0,0.75,0],[0,0.5,0],[0,0.25,0]];rectStyle=rounded;size=10;container=1;expand=0;collapsible=0;taskMarker=user;fillColor=none;" vertex="1" parent="1">
            <mxGeometry x="160" y="130" width="100" height="60" as="geometry" />
          </mxCell>
        </object>
        <mxCell id="k24GHoGkGPeTWMlgkCIQ-62" style="edgeStyle=orthogonalEdgeStyle;rounded=0;orthogonalLoop=1;jettySize=auto;html=1;" edge="1" parent="1" source="k24GHoGkGPeTWMlgkCIQ-3" target="k24GHoGkGPeTWMlgkCIQ-4">
          <mxGeometry relative="1" as="geometry" />
        </mxCell>
        <object label="&lt;div&gt;Under 5 Number&lt;/div&gt;" odk_type="text" name="t_" id="k24GHoGkGPeTWMlgkCIQ-3">
          <mxCell style="shape=mxgraph.bpmn.task2;whiteSpace=wrap;html=1;fixedSize=1;points=[[0.25,0,0],[0.5,0,0],[0.75,0,0],[1,0.25,0],[1,0.5,0],[1,0.75,0],[0.75,1,0],[0.5,1,0],[0.25,1,0],[0,0.75,0],[0,0.5,0],[0,0.25,0]];rectStyle=rounded;size=10;container=1;expand=0;collapsible=0;taskMarker=user;fillColor=none;strokeColor=#9673a6;" vertex="1" parent="1">
            <mxGeometry x="155" y="230" width="110" height="60" as="geometry" />
          </mxCell>
        </object>
        <mxCell id="k24GHoGkGPeTWMlgkCIQ-63" style="edgeStyle=orthogonalEdgeStyle;rounded=0;orthogonalLoop=1;jettySize=auto;html=1;" edge="1" parent="1" source="k24GHoGkGPeTWMlgkCIQ-4" target="k24GHoGkGPeTWMlgkCIQ-14">
          <mxGeometry relative="1" as="geometry" />
        </mxCell>
        <object label="&lt;div&gt;Date of Birth&lt;/div&gt;" odk_type="date" name="d_" id="k24GHoGkGPeTWMlgkCIQ-4">
          <mxCell style="shape=mxgraph.bpmn.task2;whiteSpace=wrap;html=1;fixedSize=1;points=[[0.25,0,0],[0.5,0,0],[0.75,0,0],[1,0.25,0],[1,0.5,0],[1,0.75,0],[0.75,1,0],[0.5,1,0],[0.25,1,0],[0,0.75,0],[0,0.5,0],[0,0.25,0]];rectStyle=rounded;size=10;container=1;expand=0;collapsible=0;taskMarker=user;fillColor=none;" vertex="1" parent="1">
            <mxGeometry x="160" y="320" width="100" height="60" as="geometry" />
          </mxCell>
        </object>
        <mxCell id="k24GHoGkGPeTWMlgkCIQ-12" value="Yes" style="edgeStyle=orthogonalEdgeStyle;rounded=0;orthogonalLoop=1;jettySize=auto;html=1;strokeColor=#000000;fillColor=#F8CECC;" edge="1" source="k24GHoGkGPeTWMlgkCIQ-14" parent="1" target="k24GHoGkGPeTWMlgkCIQ-45">
          <mxGeometry relative="1" as="geometry">
            <mxPoint x="360" y="430" as="targetPoint" />
            <Array as="points">
              <mxPoint x="330" y="430" />
              <mxPoint x="330" y="450" />
            </Array>
          </mxGeometry>
        </mxCell>
        <mxCell id="k24GHoGkGPeTWMlgkCIQ-13" value="No" style="edgeStyle=orthogonalEdgeStyle;rounded=0;orthogonalLoop=1;jettySize=auto;html=1;strokeColor=#000000;fillColor=#F8CECC;" edge="1" source="k24GHoGkGPeTWMlgkCIQ-14" parent="1" target="k24GHoGkGPeTWMlgkCIQ-40">
          <mxGeometry x="-0.022" relative="1" as="geometry">
            <mxPoint x="220" y="480" as="targetPoint" />
            <Array as="points">
              <mxPoint x="220" y="480" />
              <mxPoint x="115" y="480" />
            </Array>
            <mxPoint as="offset" />
          </mxGeometry>
        </mxCell>
        <UserObject label="Ask a YES/NO question" name="ask_" odk_type="select_one yesno" id="k24GHoGkGPeTWMlgkCIQ-14">
          <mxCell style="html=1;whiteSpace=wrap;fillColor=none;rounded=0;strokeColor=default;align=left;points=[[0.25,0,0],[0.5,0,0],[0.75,0,0],[1,0.25,0],[1,0.5,0],[1,0.75,0],[0.75,1,0],[0.5,1,0],[0.25,1,0],[0,0.75,0],[0,0.5,0],[0,0.25,0]];shape=mxgraph.bpmn.task2;rectStyle=rounded;size=10;container=1;expand=0;collapsible=0;taskMarker=abstract;" vertex="1" parent="1">
            <mxGeometry x="150" y="410" width="120" height="40" as="geometry" />
          </mxCell>
        </UserObject>
        <object label="Activity end" name="next_" odk_type="activity_end" id="k24GHoGkGPeTWMlgkCIQ-40">
          <mxCell style="points=[[0.145,0.145,0],[0.5,0,0],[0.855,0.145,0],[1,0.5,0],[0.855,0.855,0],[0.5,1,0],[0.145,0.855,0],[0,0.5,0]];shape=mxgraph.bpmn.event;html=1;verticalLabelPosition=bottom;labelBackgroundColor=#ffffff;verticalAlign=top;align=center;perimeter=ellipsePerimeter;outlineConnect=0;aspect=fixed;outline=end;symbol=terminate2;strokeColor=default;" vertex="1" parent="1">
            <mxGeometry x="90" y="950" width="50" height="50" as="geometry" />
          </mxCell>
        </object>
        <UserObject label="Was the BCG vaccine administered" name="select_" odk_type="select_one" filter="" id="k24GHoGkGPeTWMlgkCIQ-45">
          <mxCell style="swimlane;fontStyle=0;childLayout=stackLayout;horizontal=1;startSize=30;horizontalStack=0;resizeParent=1;resizeParentMax=0;resizeLast=0;collapsible=0;marginBottom=0;fontColor=#000000;rounded=1;fillColor=none;strokeColor=default;align=left;" vertex="1" parent="1">
            <mxGeometry x="470" y="390" width="225" height="120" as="geometry" />
          </mxCell>
        </UserObject>
        <UserObject label="Yes" name="opt_1" odk_type="select_option" id="k24GHoGkGPeTWMlgkCIQ-46">
          <mxCell style="text;strokeColor=default;fillColor=none;align=left;verticalAlign=middle;spacingLeft=4;spacingRight=4;overflow=hidden;points=[[0,0.5],[1,0.5]];portConstraint=eastwest;rotatable=0;fontColor=#000000;rounded=0;dashed=1;" vertex="1" parent="k24GHoGkGPeTWMlgkCIQ-45">
            <mxGeometry y="30" width="225" height="30" as="geometry" />
          </mxCell>
        </UserObject>
        <UserObject label="No" name="opt_2" odk_type="select_option" id="k24GHoGkGPeTWMlgkCIQ-47">
          <mxCell style="text;strokeColor=default;fillColor=none;align=left;verticalAlign=middle;spacingLeft=4;spacingRight=4;overflow=hidden;points=[[0,0.5],[1,0.5]];portConstraint=eastwest;rotatable=0;fontColor=#000000;rounded=0;dashed=1;" vertex="1" parent="k24GHoGkGPeTWMlgkCIQ-45">
            <mxGeometry y="60" width="225" height="30" as="geometry" />
          </mxCell>
        </UserObject>
        <UserObject label="Unknown" name="opt_3" odk_type="select_option" id="k24GHoGkGPeTWMlgkCIQ-48">
          <mxCell style="text;strokeColor=default;fillColor=none;align=left;verticalAlign=middle;spacingLeft=4;spacingRight=4;overflow=hidden;points=[[0,0.5],[1,0.5]];portConstraint=eastwest;rotatable=0;fontColor=#000000;rounded=0;dashed=1;" vertex="1" parent="k24GHoGkGPeTWMlgkCIQ-45">
            <mxGeometry y="90" width="225" height="30" as="geometry" />
          </mxCell>
        </UserObject>
        <UserObject label="Was the HepB birth dose administered" name="select_" odk_type="select_one" filter="" id="k24GHoGkGPeTWMlgkCIQ-49">
          <mxCell style="swimlane;fontStyle=0;childLayout=stackLayout;horizontal=1;startSize=30;horizontalStack=0;resizeParent=1;resizeParentMax=0;resizeLast=0;collapsible=0;marginBottom=0;fontColor=#000000;rounded=1;fillColor=none;strokeColor=default;align=left;" vertex="1" parent="1">
            <mxGeometry x="470" y="770" width="225" height="120" as="geometry" />
          </mxCell>
        </UserObject>
        <UserObject label="Yes" name="opt_1" odk_type="select_option" id="k24GHoGkGPeTWMlgkCIQ-50">
          <mxCell style="text;strokeColor=default;fillColor=none;align=left;verticalAlign=middle;spacingLeft=4;spacingRight=4;overflow=hidden;points=[[0,0.5],[1,0.5]];portConstraint=eastwest;rotatable=0;fontColor=#000000;rounded=0;dashed=1;" vertex="1" parent="k24GHoGkGPeTWMlgkCIQ-49">
            <mxGeometry y="30" width="225" height="30" as="geometry" />
          </mxCell>
        </UserObject>
        <UserObject label="No" name="opt_2" odk_type="select_option" id="k24GHoGkGPeTWMlgkCIQ-51">
          <mxCell style="text;strokeColor=default;fillColor=none;align=left;verticalAlign=middle;spacingLeft=4;spacingRight=4;overflow=hidden;points=[[0,0.5],[1,0.5]];portConstraint=eastwest;rotatable=0;fontColor=#000000;rounded=0;dashed=1;" vertex="1" parent="k24GHoGkGPeTWMlgkCIQ-49">
            <mxGeometry y="60" width="225" height="30" as="geometry" />
          </mxCell>
        </UserObject>
        <UserObject label="Unknown" name="opt_3" odk_type="select_option" id="k24GHoGkGPeTWMlgkCIQ-52">
          <mxCell style="text;strokeColor=default;fillColor=none;align=left;verticalAlign=middle;spacingLeft=4;spacingRight=4;overflow=hidden;points=[[0,0.5],[1,0.5]];portConstraint=eastwest;rotatable=0;fontColor=#000000;rounded=0;dashed=1;" vertex="1" parent="k24GHoGkGPeTWMlgkCIQ-49">
            <mxGeometry y="90" width="225" height="30" as="geometry" />
          </mxCell>
        </UserObject>
        <object label="&lt;div&gt;BCG vaccination date&lt;/div&gt;" odk_type="date" name="d_" constraint="${date_of_birth} &lt;= .  and . &lt;= today()" constraint_message="date cannot be in the future" id="k24GHoGkGPeTWMlgkCIQ-53">
          <mxCell style="shape=mxgraph.bpmn.task2;whiteSpace=wrap;html=1;fixedSize=1;points=[[0.25,0,0],[0.5,0,0],[0.75,0,0],[1,0.25,0],[1,0.5,0],[1,0.75,0],[0.75,1,0],[0.5,1,0],[0.25,1,0],[0,0.75,0],[0,0.5,0],[0,0.25,0]];rectStyle=rounded;size=10;container=1;expand=0;collapsible=0;taskMarker=user;fillColor=none;" vertex="1" parent="1">
            <mxGeometry x="890" y="405" width="100" height="60" as="geometry" />
          </mxCell>
        </object>
        <mxCell id="k24GHoGkGPeTWMlgkCIQ-54" style="edgeStyle=orthogonalEdgeStyle;rounded=0;orthogonalLoop=1;jettySize=auto;html=1;" edge="1" parent="1" source="k24GHoGkGPeTWMlgkCIQ-46" target="k24GHoGkGPeTWMlgkCIQ-53">
          <mxGeometry relative="1" as="geometry" />
        </mxCell>
        <object label="HepB vaccination date" odk_type="date" name="d_" id="k24GHoGkGPeTWMlgkCIQ-55">
          <mxCell style="shape=mxgraph.bpmn.task2;whiteSpace=wrap;html=1;fixedSize=1;points=[[0.25,0,0],[0.5,0,0],[0.75,0,0],[1,0.25,0],[1,0.5,0],[1,0.75,0],[0.75,1,0],[0.5,1,0],[0.25,1,0],[0,0.75,0],[0,0.5,0],[0,0.25,0]];rectStyle=rounded;size=10;container=1;expand=0;collapsible=0;taskMarker=user;fillColor=none;" vertex="1" parent="1">
            <mxGeometry x="890" y="785" width="100" height="60" as="geometry" />
          </mxCell>
        </object>
        <mxCell id="k24GHoGkGPeTWMlgkCIQ-56" style="edgeStyle=orthogonalEdgeStyle;rounded=0;orthogonalLoop=1;jettySize=auto;html=1;" edge="1" parent="1" source="k24GHoGkGPeTWMlgkCIQ-50" target="k24GHoGkGPeTWMlgkCIQ-55">
          <mxGeometry relative="1" as="geometry" />
        </mxCell>
        <mxCell id="k24GHoGkGPeTWMlgkCIQ-60" value="Yes" style="edgeStyle=orthogonalEdgeStyle;rounded=0;orthogonalLoop=1;jettySize=auto;html=1;strokeColor=#000000;fillColor=#F8CECC;" edge="1" parent="1" source="k24GHoGkGPeTWMlgkCIQ-14" target="k24GHoGkGPeTWMlgkCIQ-49">
          <mxGeometry relative="1" as="geometry">
            <mxPoint x="600" y="710" as="targetPoint" />
            <mxPoint x="360" y="760" as="sourcePoint" />
            <Array as="points">
              <mxPoint x="360" y="430" />
              <mxPoint x="360" y="830" />
            </Array>
          </mxGeometry>
        </mxCell>
      </root>
    </mxGraphModel>
  </diagram>
</mxfile>
